<?xml version="1.0" standalone="no"?>
<!DOCTYPE svg PUBLIC "-//W3C//DTD SVG 1.1//EN" "http://www.w3.org/Graphics/SVG/1.1/DTD/svg11.dtd" >
<svg xmlns="http://www.w3.org/2000/svg" xmlns:xlink="http://www.w3.org/1999/xlink" version="1.1">
<metadata>
Created by FontForge 20161013 at Fri Jan  1 02:30:17 1904
 By ,,,
Copyright c 1992 by CC Font ManipSystems
</metadata>
<defs>
<font id="Rockwell" horiz-adv-x="1094" >
  <font-face 
    font-family="Rockwell"
    font-weight="400"
    font-stretch="normal"
    units-per-em="2048"
    panose-1="2 11 5 0 0 0 0 0 0 0"
    ascent="1638"
    descent="-410"
    x-height="1038"
    cap-height="1475"
    bbox="-317 -479 2040 1837"
    underline-thickness="50"
    underline-position="-175"
    unicode-range="U+0020-203A"
  />
<missing-glyph horiz-adv-x="1536" 
d="M256 0v1280h1024v-1280h-1024zM1248 32v1216h-960v-1216h960z" />
    <glyph glyph-name=".notdef" horiz-adv-x="1536" 
d="M256 0v1280h1024v-1280h-1024zM1248 32v1216h-960v-1216h960z" />
    <glyph glyph-name=".null" horiz-adv-x="0" 
 />
    <glyph glyph-name="nonmarkingreturn" horiz-adv-x="0" 
 />
    <glyph glyph-name="space" unicode=" " horiz-adv-x="547" 
 />
    <glyph glyph-name="exclam" unicode="!" horiz-adv-x="361" 
d="M78 0h244v250h-244v-250zM103 998l43 -611h108l48 611l-1 477h-198v-477z" />
    <glyph glyph-name="quotedbl" unicode="&#x22;" horiz-adv-x="635" 
d="M29 918q130 0 192 84t62 223v250h-254v-258h108q13 -25 13 -49q0 -49 -37 -89q-36 -40 -84 -40v-121zM357 918q133 0 194.5 74t61.5 233v250h-256v-258h109q11 -25 11 -49q0 -50 -35.5 -89.5t-84.5 -39.5v-121z" />
    <glyph glyph-name="dollar" unicode="$" horiz-adv-x="996" 
d="M25 0h186v103q53 -55 96.5 -80.5t104.5 -39.5v-178h156v166q126 12 218.5 68.5t140.5 149.5q48 94 48 219q0 141 -72 235t-181 147q-110 54 -260 99q-86 27 -134.5 55.5t-70 67t-21.5 94.5q0 95 59.5 152t157.5 57q80 0 159 -44q80 -45 130 -120v-96h188v420h-192v-88
q-39 42 -74 62t-96 36v178h-156v-162q-110 -8 -197 -64q-86 -57 -134 -149.5t-48 -205.5q0 -108 40 -183.5t129 -130.5t243 -98q126 -38 195 -75t96.5 -83.5t27.5 -120.5q0 -96 -68 -162.5t-169 -66.5q-91 0 -187 62t-129 141v145h-186v-510z" />
    <glyph glyph-name="percent" unicode="%" horiz-adv-x="1227" 
d="M283 1501q-129 0 -198 -100q-68 -101 -68 -291q0 -196 68 -300q69 -103 198 -103q128 0 195 102t67 297q0 194 -66.5 294.5t-195.5 100.5zM283 1366q113 0 113 -250q0 -272 -113 -272q-119 0 -119 258q0 264 119 264zM193 0l100 -43l242 500l493 1032l-94 47l-244 -502z
M951 789q-131 0 -200 -104q-69 -103 -69 -298q0 -192 71 -293.5t202 -101.5q83 0 141 46q59 45 89 132.5t30 212.5q0 406 -264 406zM951 649q114 0 114 -253q0 -269 -110 -269q-124 0 -124 256q0 266 120 266z" />
    <glyph glyph-name="ampersand" unicode="&#x26;" horiz-adv-x="1270" 
d="M867 127l90 -127h313v178h-205l-69 113q59 92 88 154t61 166h125v174h-274q-15 -102 -41 -174.5t-76 -153.5l-262 387q111 52 172 99t86.5 103.5t25.5 137.5q0 92 -41.5 164.5t-116.5 112.5t-171 40q-95 0 -170 -40.5t-116.5 -114t-41.5 -166.5q0 -104 70 -246
q-141 -56 -225.5 -178t-84.5 -272q0 -144 64.5 -262.5t177.5 -186.5t252 -68q233 0 369 160zM764 287q-61 -69 -112 -97t-121 -28q-133 0 -224.5 101.5t-91.5 246.5q0 89 43.5 150t132.5 104l25 12zM506 1002q-36 58 -48.5 93.5t-12.5 80.5q0 75 35 116t100 41
q63 0 100 -37.5t37 -103.5q0 -65 -47.5 -108t-163.5 -82z" />
    <glyph glyph-name="quotesingle" unicode="'" horiz-adv-x="314" 
d="M33 918q127 0 190 86q64 86 64 221v250h-254v-258h109v-21v-16q0 -68 -24.5 -104.5t-84.5 -36.5v-121z" />
    <glyph glyph-name="parenleft" unicode="(" horiz-adv-x="545" 
d="M545 -332v149q-54 16 -90.5 46t-81.5 94q-51 73 -85.5 165t-51.5 204.5t-17 255.5q0 168 25 315q25 148 97 272t204 185v152q-183 -54 -301 -199t-171 -335t-53 -386q0 -441 195 -689q161 -198 330 -229z" />
    <glyph glyph-name="parenright" unicode=")" horiz-adv-x="545" 
d="M0 -332q127 24 248 145q95 86 157 202t93 261q29 146 29 322q0 143 -29.5 284t-94.5 269q-64 128 -165 221.5t-238 133.5v-152q113 -66 184.5 -165.5t107.5 -245.5q34 -147 34 -345q0 -165 -23.5 -319.5t-95.5 -284.5t-207 -177v-149z" />
    <glyph glyph-name="asterisk" unicode="*" horiz-adv-x="957" 
d="M8 1137l201 -68q35 25 94 25q46 0 109 -17q-43 -58 -76.5 -82.5t-91.5 -35.5l-121 -174l170 -131l123 174q0 53 14 92.5t47 101.5q27 -31 37.5 -59.5t18.5 -72.5q7 -43 12 -66l121 -170l170 131l-125 174q-81 5 -165 118q66 19 110 19q56 0 94 -27l205 72l-74 201
l-195 -66q-32 -54 -60 -73.5t-99 -34.5q6 131 62 174l-1 221h-215v-221q30 -29 43.5 -65.5t19.5 -108.5q-24 8 -28 8q-80 31 -100 46.5t-33 57.5l-205 62z" />
    <glyph glyph-name="comma" unicode="," horiz-adv-x="275" 
d="M8 -297q250 0 250 322v217h-241v-242h106q0 -97 -26.5 -140t-88.5 -43v-114z" />
    <glyph glyph-name="hyphen" unicode="-" horiz-adv-x="635" 
d="M25 479h592v207h-592v-207z" />
    <glyph glyph-name="period" unicode="." horiz-adv-x="314" 
d="M37 0h242v242h-242v-242z" />
    <glyph glyph-name="slash" unicode="/" horiz-adv-x="858" 
d="M8 0l107 -47l242 504l497 1032l-108 51l-240 -506z" />
    <glyph glyph-name="zero" unicode="0" horiz-adv-x="996" 
d="M502 1501q-114 0 -203.5 -49.5t-153.5 -146.5q-63 -97 -96 -236.5t-33 -312.5q0 -137 20 -271q20 -133 71 -251q52 -118 148.5 -192.5t242.5 -74.5q114 0 204.5 50.5t153 146.5t95 234t32.5 315q0 135 -21 269t-74 253q-52 118 -148 192t-238 74zM768 641
q0 -151 -32.5 -262t-93 -168t-144.5 -57t-145 57q-61 58 -93.5 167t-32.5 263v187q0 152 33 261.5t93.5 167.5t144.5 58t144.5 -57t93 -168t32.5 -262v-187z" />
    <glyph glyph-name="one" unicode="1" horiz-adv-x="588" 
d="M8 1293v182h391v-1292h177v-183h-547v183h176v1110h-197z" />
    <glyph glyph-name="two" unicode="2" horiz-adv-x="957" 
d="M17 0q0 150 26 231.5t69 153.5q106 178 329 334q112 80 166.5 132.5t75 105.5t20.5 129q0 114 -58 179q-57 64 -159 64q-118 0 -183 -85q-40 -52 -55.5 -124.5t-15.5 -197.5h-191v72q0 162 53 277t155 174.5t245 59.5q126 0 221.5 -52t146.5 -148q52 -96 52 -223
q0 -104 -29.5 -177t-105.5 -147q-32 -32 -82 -72t-129 -99t-131 -99t-63 -50q-59 -53 -90.5 -109t-55.5 -146h514v348h192v-531h-917z" />
    <glyph glyph-name="three" unicode="3" horiz-adv-x="957" 
d="M41 1034q0 155 45 242q50 111 151.5 168t221.5 57q109 0 208 -46.5t160.5 -134.5t61.5 -206q0 -124 -66 -219q-66 -94 -171 -114q132 -34 211 -135t79 -242q0 -97 -34 -178q-34 -80 -98 -138.5t-153 -89.5t-196 -31q-142 0 -246.5 53t-159.5 153q-55 101 -55 239v80h189
q0 -173 69 -264q70 -91 203 -91q83 0 143.5 31.5t92.5 90.5q33 58 33 137q0 85 -39 151.5t-111 102.5q-48 25 -92.5 30.5t-153.5 5.5v170q125 0 182.5 11.5t109.5 55.5q77 66 77 179q0 66 -29.5 119t-83 82.5t-121.5 29.5q-125 0 -184 -92q-48 -74 -53 -207h-191z" />
    <glyph glyph-name="four" unicode="4" horiz-adv-x="957" 
d="M4 570l86 -162h482v-225h-131v-183h440v183h-113v225h178v166h-186v901h-180zM201 574l371 585v-585h-371z" />
    <glyph glyph-name="five" unicode="5" horiz-adv-x="957" 
d="M244 884q120 93 262 93q100 0 181 -35t139.5 -100t89 -156.5t30.5 -201.5q0 -152 -61 -270q-62 -117 -173 -182t-253 -65q-126 0 -235 53t-162 142q-26 47 -40 99t-18 106.5t-4 107.5h193q11 -154 70 -246t198 -92q87 0 149 48t94 126t32 166q0 84 -29.5 155.5
t-87.5 116.5q-58 43 -142 43q-159 0 -272 -181l-154 108l68 756h760v-398h-184v216h-408z" />
    <glyph glyph-name="six" unicode="6" horiz-adv-x="996" 
d="M223 793q151 141 326 141q122 0 219.5 -63t152 -174t54.5 -248q0 -140 -58.5 -249.5t-163 -171t-235.5 -61.5q-136 0 -241 65t-166 185q-44 82 -63 200t-19 300q0 383 130 583.5t380 200.5q122 0 218.5 -55t149.5 -155q36 -68 45 -116t9 -120h-189q-6 135 -65 204.5
t-164 69.5q-101 0 -167 -51.5t-102 -159.5q-24 -73 -36 -172.5t-15 -152.5zM232 578q0 -55 4.5 -111.5t8 -75t12 -43.5t9.5 -30q34 -91 98 -140t150 -49t147.5 46.5t93.5 120.5q30 74 30 157q0 78 -29 148t-87 113q-57 42 -138 42q-87 0 -153 -39.5t-146 -138.5z" />
    <glyph glyph-name="seven" unicode="7" horiz-adv-x="905" 
d="M17 1082v393h868v-164q-84 -126 -148 -261q-64 -134 -109.5 -275.5t-73.5 -288.5t-40 -303h160v-183h-547v183h174q15 194 47 342.5t98 308.5q12 29 49.5 110.5t66.5 139t64.5 129t39.5 80.5h-461v-211h-188z" />
    <glyph glyph-name="eight" unicode="8" horiz-adv-x="996" 
d="M729 768q209 100 209 334q0 112 -58 205q-58 94 -159 148q-102 55 -223 55q-122 0 -223.5 -54.5t-158.5 -148.5q-59 -94 -59 -205q0 -73 26 -142q26 -68 74 -119q48 -50 109 -73q-114 -38 -180 -137t-66 -235q0 -126 60 -223.5t168 -151.5q109 -54 250 -54q142 0 250 54
t167.5 153t59.5 226q0 130 -59.5 220t-186.5 148zM494 690q78 0 141 -36t98 -100t35 -146q0 -128 -74 -201.5t-200 -73.5q-120 0 -193.5 73t-73.5 194q0 84 34.5 150t95 103t137.5 37zM498 1333q74 0 132.5 -31t92 -87t33.5 -125q0 -113 -78 -176q-77 -64 -182 -64
q-67 0 -124.5 26.5t-93 79.5t-35.5 130q0 72 33 128t90.5 87.5t131.5 31.5z" />
    <glyph glyph-name="nine" unicode="9" horiz-adv-x="996" 
d="M776 679q-123 -144 -321 -144q-97 0 -177 34.5t-136 98t-86.5 154t-30.5 200.5q0 141 57 250.5t161 169t239 59.5q127 0 227 -57q101 -57 166 -164q91 -163 91 -508q0 -427 -141 -628q-125 -177 -360 -177q-132 0 -228 53t-146 153q-49 100 -49 239h186q2 -86 29 -147
t77.5 -92.5t120.5 -31.5q144 0 223 117q92 134 98 421zM772 885q0 102 -7.5 156.5t-28.5 103.5q-37 92 -103 142q-67 51 -151 51t-145 -46q-60 -46 -91 -121.5t-31 -158.5q0 -79 28.5 -148t85 -111t136.5 -42q153 0 307 174z" />
    <glyph glyph-name="colon" unicode=":" horiz-adv-x="314" 
d="M57 0h248v242h-248v-242zM57 776h248v242h-248v-242z" />
    <glyph glyph-name="semicolon" unicode=";" horiz-adv-x="361" 
d="M78 -297q252 0 252 322v217h-240v-242h103q0 -97 -27 -140t-88 -43v-114zM90 772h240v246h-240v-246z" />
    <glyph glyph-name="less" unicode="&#x3c;" horiz-adv-x="819" 
d="M-12 557l252 -460h222l-252 460l252 482h-222zM353 557l256 -460h219l-260 460l260 482h-219z" />
    <glyph glyph-name="greater" unicode="&#x3e;" horiz-adv-x="819" 
d="M-12 97h222l252 460l-253 482h-221l256 -482zM353 97h215l260 460l-260 482h-215l260 -482z" />
    <glyph glyph-name="question" unicode="?" horiz-adv-x="819" 
d="M0 1030h201q6 159 55.5 231t147.5 72q86 0 141 -67t55 -172q0 -112 -68 -172t-171 -60q-32 0 -78 11l35 -470h114l17 283q105 4 188 59q82 53 128 146.5t46 210.5q0 121 -51 215.5t-144 147.5t-212 53q-135 0 -225.5 -67t-134.5 -178q-44 -110 -44 -243zM240 0h246v250
h-246v-250z" />
    <glyph glyph-name="A" unicode="A" horiz-adv-x="1456" 
d="M-4 0v183h146l397 1110h-178v182h746l-1 -182h-171l378 -1110h150v-183h-561l-1 183h177l-107 335h-494l-108 -335h170v-183h-543zM539 703h371l-185 581z" />
    <glyph glyph-name="B" unicode="B" 
d="M8 0v183h160v1110h-160v182h560q206 0 310.5 -94t104.5 -275q0 -228 -188 -313q122 -38 188 -117q78 -94 78 -248q0 -133 -53.5 -230t-156 -147.5t-242.5 -50.5h-601zM387 183h176q142 0 212 58.5t70 174.5q0 133 -80 202q-79 68 -226 68h-152v-503zM387 860h123
q140 0 207 53q68 52 68 164q0 110 -59.5 163t-182.5 53h-156v-433z" />
    <glyph glyph-name="C" unicode="C" horiz-adv-x="1403" 
d="M1407 496l-172 98q-77 -215 -197.5 -315.5t-295.5 -100.5q-139 0 -247 71.5t-168.5 198.5t-60.5 287q0 166 59 297q59 132 165 205q105 74 239 74q108 0 199 -38q91 -37 154 -107q63 -69 90 -164h182v479h-186v-152q-169 181 -443 181q-195 0 -354 -102.5t-248.5 -283
t-89.5 -405.5q0 -214 89 -385t249.5 -267t361.5 -96q123 0 226.5 32t187.5 97t149 164t111 232z" />
    <glyph glyph-name="D" unicode="D" horiz-adv-x="1403" 
d="M17 0v183h159v1110h-159v182h604q227 0 362 -61q129 -48 217 -146t131 -227t43 -271q0 -104 -22.5 -205t-67.5 -192.5t-112 -164.5q-66 -73 -152 -120q-151 -88 -403 -88h-600zM396 183h274q106 0 193 40q88 39 151 112.5t97 176.5t34 223q0 168 -59.5 295t-172 195
t-261.5 68h-256v-1110z" />
    <glyph glyph-name="E" unicode="E" horiz-adv-x="1180" 
d="M13 0v183h159v1110h-159v182h1142v-432h-184v250h-580v-437h510v-187h-510v-486h580v278h184v-461h-1142z" />
    <glyph glyph-name="F" unicode="F" 
d="M8 0v183h160v1110h-160v182h1081v-428h-192v246h-510v-437h453v-182h-453v-491h168v-183h-547z" />
    <glyph glyph-name="G" unicode="G" horiz-adv-x="1501" 
d="M1477 740q0 -102 -6 -166.5t-13.5 -101t-14.5 -53t-18 -41.5q-53 -127 -148.5 -218.5t-227.5 -142.5q-132 -50 -285 -50q-159 0 -293.5 54.5t-232.5 155.5q-98 102 -149 240q-52 139 -52 302q0 172 51.5 317.5t147 251.5t227.5 164t287 58q138 0 247 -44
q110 -44 207 -140v155h187v-467h-182q-69 146 -180 220q-114 77 -273 77q-110 0 -200 -41.5t-155 -118.5t-100 -185t-35 -235q0 -164 64 -291.5t180.5 -196.5t270.5 -69q194 0 313.5 96.5t149.5 276.5h-269v193h502z" />
    <glyph glyph-name="H" unicode="H" horiz-adv-x="1364" 
d="M8 0v183h160v1110h-160v182h541v-182h-162v-416h588v416h-160v182h541v-182h-164v-1110h164v-183h-541v183h160v512h-588v-512h162v-183h-541z" />
    <glyph glyph-name="I" unicode="I" horiz-adv-x="545" 
d="M4 0v183h160v1110h-160v182h541v-182h-162v-1110h162v-183h-541z" />
    <glyph glyph-name="J" unicode="J" horiz-adv-x="545" 
d="M-137 -453v191q47 -4 100 -4q120 0 164.5 54.5t44.5 198.5v1306h-172v182h545v-182h-158v-1305q0 -226 -95 -335.5t-296 -109.5q-21 0 -58 2t-75 2z" />
    <glyph glyph-name="K" unicode="K" horiz-adv-x="1270" 
d="M0 0v183h159v1110h-159v182h543v-182h-164v-1110h164v-183h-543zM387 781l445 512h-133v182h553v-182h-179l-415 -492l448 -618h160v-183h-580v183h146z" />
    <glyph glyph-name="L" unicode="L" horiz-adv-x="1045" 
d="M13 0v183h159v1110h-159v182h540v-182h-162v-1110h437v507h188v-690h-1003z" />
    <glyph glyph-name="M" unicode="M" horiz-adv-x="1725" 
d="M0 0v183h160v1110h-160v182h506l361 -996l348 996h510v-182h-162v-1110h162v-183h-541v183h162v1101l-461 -1284h-66l-466 1284v-1101h165v-183h-518z" />
    <glyph glyph-name="N" unicode="N" horiz-adv-x="1403" 
d="M4 0v183h160v1110h-160v182h451l592 -1127v945h-166v182h518v-182h-160v-1293h-239l-644 1225v-1042h166v-183h-518z" />
    <glyph glyph-name="O" unicode="O" horiz-adv-x="1501" 
d="M746 1510q-207 0 -373 -99.5t-259 -277t-93 -402.5q0 -214 93 -388q94 -175 258 -273q165 -99 370 -99q210 0 376.5 98.5t260.5 272.5q94 175 94 393q0 166 -53.5 308.5t-151.5 247t-232 162t-290 57.5zM746 1305q140 0 252 -73.5t175 -204t63 -292.5q0 -163 -64 -291
q-63 -128 -176.5 -199t-257.5 -71q-151 0 -260 80q-108 79 -162.5 207t-54.5 272q0 108 31 211t92.5 184.5t154.5 128.5q92 48 207 48z" />
    <glyph glyph-name="P" unicode="P" 
d="M8 0v183h160v1110h-160v182h621q139 0 240.5 -53t154.5 -154t53 -242q0 -143 -57 -248q-58 -104 -167 -158q-108 -55 -261 -55h-205v-382h168v-183h-547zM387 748h162q166 0 241 80q64 67 64 190q0 147 -68.5 211t-232.5 64h-166v-545z" />
    <glyph glyph-name="Q" unicode="Q" horiz-adv-x="1501" 
d="M545 -8q-159 22 -277 137q-119 116 -182 279q-62 162 -62 319q0 169 53 312q54 143 152 247t231 159.5t290 55.5q156 0 289.5 -57t232 -162t152 -248t53.5 -311q0 -141 -41 -267q-41 -125 -119 -224.5t-186.5 -163.5t-241.5 -89q31 -13 77.5 -32t87.5 -31q40 -11 76 -11
q44 0 83 18l-64 -198q-28 -3 -54 -3q-49 0 -102 16q-55 17 -133 50q-160 66 -237 66q-85 0 -162 -57l-74 100q57 49 85 66q29 17 73 29zM746 1296q-117 0 -208 -47q-91 -46 -153 -127t-93 -184q-32 -102 -32 -209q0 -108 31 -208t92.5 -180.5t153 -127.5t209.5 -47
q139 0 252 73.5t177 202.5t64 285q0 159 -64 290t-177.5 205t-251.5 74z" />
    <glyph glyph-name="R" unicode="R" horiz-adv-x="1180" 
d="M4 0v183h160v1110h-160v182h631q198 0 283 -70q147 -108 147 -336q0 -90 -29 -157t-90.5 -115t-160.5 -84l243 -530h152v-183h-301l-311 686h-185v-503h162v-183h-541zM383 869h226q114 0 176.5 54t62.5 154q0 111 -59 163q-59 53 -185 53h-221v-424z" />
    <glyph glyph-name="S" unicode="S" horiz-adv-x="996" 
d="M25 0v510h187v-145q119 -203 319 -203q100 0 167 66t67 163q0 70 -27.5 113.5t-96.5 80.5q-26 14 -141.5 58t-163 62t-87.5 40q-78 40 -127.5 88.5t-73 108.5t-23.5 135q0 123 60.5 221t159 151.5t208.5 53.5q165 0 285 -116v88h192v-420h-192v96q-70 89 -136.5 129
t-146.5 40q-98 0 -161 -59q-62 -58 -62 -147q0 -61 25.5 -100.5t87.5 -71.5q21 -11 116.5 -45.5t170.5 -64.5t124 -59q97 -57 158 -148t61 -221q0 -127 -65 -227t-170 -155t-220 -55q-186 0 -309 136v-103h-186z" />
    <glyph glyph-name="T" unicode="T" horiz-adv-x="1180" 
d="M17 908v567h1150v-567h-188v385h-276v-1110h159v-183h-540v183h160v1110h-277v-385h-188z" />
    <glyph glyph-name="U" unicode="U" horiz-adv-x="1317" 
d="M0 1293v182h539v-182h-166v-826q0 -154 71 -234q71 -79 210 -79q157 0 227 96q57 77 57 217v826h-162v182h541v-182h-162v-825q0 -159 -58 -270.5t-170.5 -168.5t-272.5 -57q-158 0 -269 57q-112 58 -170 169q-59 112 -59 269v826h-156z" />
    <glyph glyph-name="V" unicode="V" horiz-adv-x="1403" 
d="M0 1293v182h531v-182h-152l332 -1006l340 1006h-154v182h510v-182h-149l-455 -1293h-207l-446 1293h-150z" />
    <glyph glyph-name="W" unicode="W" horiz-adv-x="2048" 
d="M8 1293v182h519v-182h-158l252 -961l241 961h-155v182h649v-182h-156l248 -957l246 957h-152v182h498v-182h-156l-342 -1293h-213l-305 1200l-313 -1200h-213l-338 1293h-152z" />
    <glyph glyph-name="X" unicode="X" horiz-adv-x="1270" 
d="M-4 0h535v183h-170l264 395l254 -395h-154v-183h549v183h-147l-385 569l356 541h172v182h-541v-182h152l-238 -379l-243 379h131v182h-535v-182h164l358 -558l-372 -552h-150v-183z" />
    <glyph glyph-name="Y" unicode="Y" horiz-adv-x="1317" 
d="M8 1293h152l395 -619v-491h-159v-183h546v183h-161v487l372 623h156v182h-516v-182h162l-265 -441l-278 441h143v182h-547v-182z" />
    <glyph glyph-name="Z" unicode="Z" horiz-adv-x="1045" 
d="M8 0v183l730 1110h-523v-246h-182v428h958v-159l-747 -1133h596v278h188v-461h-1020z" />
    <glyph glyph-name="bracketleft" unicode="[" horiz-adv-x="545" 
d="M62 -316h477v154h-264v478v1034h264v156h-477v-789v-1033z" />
    <glyph glyph-name="bracketright" unicode="]" horiz-adv-x="545" 
d="M8 1350h267v-477v-1035h-267v-154h474v787v1035h-474v-156z" />
    <glyph glyph-name="underscore" unicode="_" horiz-adv-x="858" 
d="M-8 -266v-50h883v50h-883z" />
    <glyph glyph-name="grave" unicode="`" horiz-adv-x="314" 
d="M-291 1544l287 -309h141l-154 309h-274z" />
    <glyph glyph-name="a" unicode="a" horiz-adv-x="996" 
d="M654 97v-97h337v178h-143v512q0 132 -41 214t-127.5 119.5t-224.5 37.5q-108 0 -183.5 -24.5t-130.5 -80.5q-55 -55 -104 -149l178 -51q35 60 106.5 96.5t145.5 36.5q78 0 131.5 -45t53.5 -133v-158q-113 94 -265 94q-94 0 -180 -40t-138 -116.5t-52 -178.5
q0 -152 105 -239.5t249 -87.5q169 0 283 112zM652 242q-38 -41 -110 -67q-72 -25 -142 -25q-85 0 -140 38q-55 39 -55 119q0 88 55.5 131.5t141.5 43.5q71 0 141 -28t109 -73v-139z" />
    <glyph glyph-name="b" unicode="b" horiz-adv-x="1180" 
d="M-4 0v178h146v1119h-146v178h346v-568q87 89 157 121q70 33 175 33q142 0 254.5 -68t176 -191t63.5 -280q0 -155 -65 -281t-180 -195q-116 -71 -261 -71q-97 0 -166 28q-58 24 -101.5 61.5t-60.5 58.5v-124zM652 876q-99 0 -170 -50t-106.5 -132.5t-35.5 -175.5
q0 -90 35.5 -171t105 -131t166.5 -50q75 0 134 29.5t98.5 81t60.5 114.5q19 63 19 131q0 93 -35.5 174t-105.5 130.5t-166 49.5z" />
    <glyph glyph-name="c" unicode="c" horiz-adv-x="996" 
d="M996 283q-52 -135 -182 -219q-129 -85 -279 -85q-112 0 -205.5 38.5t-161 110t-103.5 170.5q-36 100 -36 216q0 153 62 280q62 124 173 193.5t250 69.5q174 0 279 -110v92h170v-385h-170q-12 109 -85.5 172.5t-185.5 63.5q-92 0 -158 -50t-99 -131.5t-33 -171.5
q0 -71 19.5 -138.5t59.5 -121t99 -84.5t133 -31q105 0 190 72q61 51 111 139z" />
    <glyph glyph-name="d" unicode="d" horiz-adv-x="1180" 
d="M848 129q-126 -150 -330 -150q-143 0 -257.5 67.5t-179.5 188.5q-64 121 -64 277q0 155 62 284q61 127 173 196t258 69q107 0 181 -34q73 -33 149 -116v386h-178v178h379v-1297h143v-179h-336v130zM531 872q-98 0 -168 -49.5t-106 -130.5t-36 -173t35.5 -172.5
t106 -130.5t168.5 -50t168 50t105.5 130t35.5 172q0 94 -35.5 174.5t-105.5 130t-168 49.5z" />
    <glyph glyph-name="e" unicode="e" horiz-adv-x="1045" 
d="M1032 258q-68 -104 -138 -166.5t-152.5 -89t-192.5 -26.5q-121 0 -219.5 37.5t-168.5 107.5t-108 170q-37 100 -37 223q0 160 65 285t182 193.5t268 68.5q111 0 203.5 -38t158.5 -107t103 -167q36 -97 36 -214v-68h-801q13 -142 100 -226q85 -83 222 -83q101 0 173.5 40
t148.5 138zM235 626h597q-28 174 -153 239q-62 30 -140 30q-117 0 -191 -59q-84 -67 -113 -210z" />
    <glyph glyph-name="f" unicode="f" horiz-adv-x="498" 
d="M-4 0h511v178h-168v682h168v179h-168v161q0 72 14 99q15 26 51 26q39 0 54.5 -20.5t27.5 -87.5l176 18q-5 81 -38 141t-91 93q-57 32 -133 32q-81 0 -140 -36q-58 -37 -88 -107t-30 -166v-153h-146v-179h146v-682h-146v-178z" />
    <glyph glyph-name="g" unicode="g" horiz-adv-x="1227" 
d="M867 133q-67 -83 -148.5 -120.5t-191.5 -37.5q-142 0 -253 69q-110 67 -171.5 189t-61.5 277q0 158 62.5 283t176.5 194.5t259 69.5q222 0 328 -145v127h342v-183h-151l-1 -694q0 -127 -7.5 -207t-27.5 -136t-59 -106q-76 -98 -185 -145q-108 -47 -233 -47
q-118 0 -234.5 39.5t-211.5 111.5l129 133q85 -53 150 -74.5t144 -21.5q177 0 261 97q42 49 63 123t21 204zM553 869q-98 0 -168.5 -50t-106 -132.5t-35.5 -174.5q0 -89 35 -170q36 -81 105.5 -130.5t165.5 -49.5q98 0 168 50.5t106 131.5q35 82 35 172q0 92 -35 173
t-104 130.5t-166 49.5z" />
    <glyph glyph-name="h" unicode="h" 
d="M13 0v178h143v1119h-143v178h340v-553q182 133 335 133q142 0 209 -121q28 -40 34.5 -87t6.5 -134v-535h139v-178h-339v682q0 174 -121 174t-264 -125v-553h161v-178h-501z" />
    <glyph glyph-name="i" unicode="i" horiz-adv-x="498" 
d="M4 0h490v178h-144v861h-346v-179h146v-682h-146v-178zM258 1522q-58 0 -91.5 -40t-33.5 -93q0 -54 33 -94q33 -39 92 -39q61 0 93 38q33 38 33 93t-33 95t-93 40z" />
    <glyph glyph-name="j" unicode="j" horiz-adv-x="408" 
d="M-129 -445v187q35 -4 76 -4q116 0 159.5 51.5t43.5 189.5v881h-146v178h346v-1039q0 -82 -4.5 -135.5t-18.5 -97t-46 -87.5q-93 -128 -314 -128q-95 4 -96 4zM258 1522q61 0 94 -40t33 -95q0 -56 -34 -95.5t-97 -39.5q-60 0 -93.5 39t-33.5 92q0 56 36 97q35 42 95 42z
" />
    <glyph glyph-name="k" unicode="k" horiz-adv-x="1133" 
d="M17 0v178h143v1119h-143v178h340v-940l372 325h-157v178h546v-178h-139l-366 -317l348 -365h157v-178h-256l-505 531v-353h170v-178h-510z" />
    <glyph glyph-name="l" unicode="l" horiz-adv-x="498" 
d="M4 0v178h146v1119h-146v178h346v-1297h144v-178h-490z" />
    <glyph glyph-name="m" unicode="m" horiz-adv-x="1678" 
d="M17 0v178h143v682h-143v179h344v-140q158 144 321 144q159 0 236 -154q96 85 172 121q76 37 162 37q265 0 265 -291v-578h144v-178h-340v735q0 54 -29.5 89.5t-72.5 35.5q-59 0 -135.5 -40.5t-145.5 -108.5v-533h144v-178h-344v744q0 49 -28 82.5t-75 33.5
q-111 0 -274 -147v-535h161v-178h-505z" />
    <glyph glyph-name="n" unicode="n" 
d="M13 0h501v178h-161v553q137 125 260 125q125 0 125 -174v-682h339v178h-139v535q0 342 -268 342q-160 0 -320 -141v125h-337v-179h143v-682h-143v-178z" />
    <glyph glyph-name="o" unicode="o" 
d="M549 1061q-147 0 -267.5 -70t-189 -194t-68.5 -279q0 -116 38 -214q39 -99 109 -170.5t167.5 -111t210.5 -39.5q150 0 267 69q118 69 183.5 191t65.5 275q0 155 -66.5 279t-185 194t-264.5 70zM545 881q99 0 171 -51t108 -134t36 -178q0 -92 -36 -173.5t-108 -132
t-171 -50.5q-101 0 -173 50t-108.5 132.5t-36.5 173.5q0 95 36.5 177.5t109 134t172.5 51.5z" />
    <glyph glyph-name="p" unicode="p" horiz-adv-x="1180" 
d="M-4 -436v178h146v1118h-146v179h342v-131q138 149 344 149q139 0 250 -70q112 -70 174 -195t62 -282q0 -153 -63.5 -273t-176.5 -187t-258 -67q-102 0 -175.5 30.5t-156.5 109.5v-381h148v-178h-490zM652 873q-99 0 -170 -50t-106.5 -132t-35.5 -175q0 -90 36 -170.5
t107 -130t169 -49.5q96 0 165 50q70 49 105 130t35 170q0 93 -35 175t-104.5 132t-165.5 50z" />
    <glyph glyph-name="q" unicode="q" horiz-adv-x="1227" 
d="M862 123q-118 -144 -327 -144q-147 0 -258 68q-112 66 -174 187t-62 276q0 162 63 288t178 194.5t263 68.5q111 0 185 -33.5t141 -113.5v125h338v-179h-152v-1118h152v-178h-496v178h149v381zM553 873q-99 0 -169 -49.5t-105.5 -130.5t-35.5 -173q0 -67 20 -130t60 -114
t98.5 -80.5t133.5 -29.5q97 0 166.5 49.5t104 129.5t34.5 171q0 93 -35 174q-36 82 -105 132q-70 51 -167 51z" />
    <glyph glyph-name="r" unicode="r" horiz-adv-x="721" 
d="M-4 0v178h146v682h-146v179h326v-191q44 113 136 166q92 54 211 54q28 0 60 -3v-217q-46 12 -88 12q-131 0 -217 -99t-86 -247v-336h205v-178h-547z" />
    <glyph glyph-name="s" unicode="s" horiz-adv-x="858" 
d="M29 0v357h186q5 -91 50 -143q61 -72 194 -72q85 0 133 36t48 101q0 55 -52.5 86.5t-191.5 62.5q-132 24 -211 62.5t-115 98.5t-36 151q0 96 50 169q50 74 131.5 113t169.5 39q147 0 246 -98v76h177l-1 -344h-172q-11 82 -55 130q-61 67 -184 67q-74 0 -123 -37t-49 -91
q0 -33 16.5 -54t63.5 -39q45 -16 149 -40q116 -28 197 -63q80 -34 135 -101t55 -172q0 -100 -53 -174q-52 -75 -137 -114.5t-179 -39.5q-156 0 -256 97v-64h-186z" />
    <glyph glyph-name="t" unicode="t" horiz-adv-x="545" 
d="M8 856v183h144v217l201 161v-378h186v-183h-186v-573q0 -63 14 -86t41 -23q56 0 131 29v-182q-78 -46 -197 -46q-190 0 -190 224v657h-144z" />
    <glyph glyph-name="u" unicode="u" 
d="M8 860v178h345v-673q0 -103 33.5 -140.5t90.5 -37.5q139 0 261 118v555h-162v178h362v-860h139v-178h-339v128q-153 -136 -322 -136q-129 0 -197 74q-67 73 -67 213v581h-144z" />
    <glyph glyph-name="v" unicode="v" 
d="M17 860h112l312 -860h202l320 860h114v179h-453v-179h144l-215 -643l-219 643h131v179h-448v-179z" />
    <glyph glyph-name="w" unicode="w" horiz-adv-x="1542" 
d="M-4 860h115l262 -860h170l225 731l228 -731h168l272 860h110v179h-409v-179h125l-185 -598l-176 598h107v179h-473v-179h104l-174 -585l-172 585h107v179h-404v-179z" />
    <glyph glyph-name="x" unicode="x" 
d="M17 0h460v178h-135l201 234l203 -234h-138l1 -178h464v178h-102l-319 357l286 325h107v179h-429v-179h109l-180 -211l-176 211h108v179h-444v-179h117l295 -333l-316 -349h-112v-178z" />
    <glyph glyph-name="y" unicode="y" horiz-adv-x="1045" 
d="M0 860v178h445v-178h-135l229 -602l217 602h-127v178h418v-178h-100l-494 -1313h-379v178h256l115 308l-338 827h-107z" />
    <glyph glyph-name="z" unicode="z" horiz-adv-x="819" 
d="M8 0h795v381h-156v-207h-432l588 662v203h-766v-390h152v216h411l-592 -666v-199z" />
    <glyph glyph-name="nonbreakingspace" unicode="&#xa0;" horiz-adv-x="313" 
 />
    <glyph glyph-name="exclamdown" unicode="&#xa1;" horiz-adv-x="361" 
d="M41 1225h242v250h-242v-250zM58 0h205v475l-52 607h-104l-49 -607v-475z" />
    <glyph glyph-name="cent" unicode="&#xa2;" horiz-adv-x="996" 
d="M453 -21v-178h156v178q90 11 160 47t126 100t101 157l-156 78q-41 -92 -125 -152q-83 -59 -172 -59q-74 0 -133 31.5t-99 86.5t-59.5 123.5t-19.5 141.5q0 94 34 179t101.5 136t163.5 51q67 0 122.5 -28t92.5 -81q38 -52 53 -124h164v389h-174v-88q-66 60 -180 90v178
h-156v-178q-131 -17 -227 -89.5t-146.5 -190t-50.5 -267.5q0 -137 55 -254q53 -118 150.5 -191.5t218.5 -85.5z" />
    <glyph glyph-name="sterling" unicode="&#xa3;" horiz-adv-x="1045" 
d="M461 111q75 -66 136 -92.5t136 -26.5q145 0 222 88.5t77 251.5v64h-139q-4 -80 -18 -120t-42.5 -56.5t-82.5 -16.5q-70 0 -119 18t-96 62q26 74 26 176q0 104 -22 203h221v173h-270q-60 110 -85.5 189.5t-25.5 155.5q0 81 51 131.5t129 50.5q182 0 197 -256h211
q0 128 -49 221q-48 92 -140 141q-92 50 -219 50q-117 0 -208 -49q-91 -48 -141 -137t-50 -203q0 -70 17 -125t71 -169h-215v-173h285q26 -93 32.5 -142.5t6.5 -146.5q-56 25 -121 25q-94 0 -161 -54t-67 -153q0 -89 62 -146.5t153 -57.5q64 0 118.5 28.5t119.5 95.5z
M322 213q-37 -49 -62 -66.5t-55 -17.5q-31 0 -49.5 17.5t-18.5 48.5q0 76 62 76q65 0 123 -58z" />
    <glyph glyph-name="section" unicode="&#xa7;" horiz-adv-x="905" 
d="M271 43h-193v-14v-8q0 -124 43.5 -210t130 -131t209.5 -45q110 0 200.5 47t141.5 128q51 82 51 182q0 81 -30.5 142.5t-102.5 131.5q97 67 134.5 133t37.5 162q0 92 -31 154.5t-109 116.5q-79 55 -227 119q-119 52 -170.5 82t-70.5 61t-19 82q0 67 49 110t126 43
q87 0 139.5 -59t58.5 -168h189q0 125 -45 215t-131.5 137t-202.5 47q-110 0 -200 -44.5t-140 -122.5q-52 -78 -52 -175q0 -84 34 -148q33 -63 105 -126q-184 -110 -184 -307q0 -104 52 -178q52 -73 130 -120q79 -48 185 -89q112 -44 168.5 -76t78 -64t21.5 -76
q0 -76 -50 -119t-138 -43q-97 0 -139.5 52.5t-48.5 177.5zM604 328l-180 80q-138 63 -183 104q-45 42 -45 107q0 60 27.5 104.5t90.5 87.5l262 -112q79 -37 112 -77t33 -104q0 -51 -26 -95t-91 -95z" />
    <glyph glyph-name="dieresis" unicode="&#xa8;" horiz-adv-x="314" 
d="M-197 1510q-56 0 -88 -40t-32 -93q0 -50 31 -88q31 -37 85 -37q41 0 71 18q30 19 45.5 48.5t15.5 62.5q0 53 -34 91t-94 38zM193 1510q-56 0 -90 -40q-33 -41 -33 -93q0 -50 31 -88q32 -37 88 -37q59 0 93 38q34 39 34 91q0 53 -32.5 91t-90.5 38z" />
    <glyph glyph-name="guillemotleft" unicode="&#xab;" horiz-adv-x="819" 
d="M-12 557l252 -460h222l-252 460l252 482h-222zM353 557l256 -460h219l-260 460l260 482h-219z" />
    <glyph glyph-name="acute" unicode="&#xb4;" horiz-adv-x="314" 
d="M-145 1235h146l278 309h-275z" />
    <glyph glyph-name="paragraph" unicode="&#xb6;" horiz-adv-x="1133" 
d="M522 -445h50v826v1036h217v-823v-1039h51v826v1036h270v58h-575q-117 0 -223 -36.5t-174 -116.5t-68 -201t61 -199.5t163 -113.5q103 -36 228 -36v-178v-1039z" />
    <glyph glyph-name="periodcentered" unicode="&#xb7;" horiz-adv-x="453" 
d="M219 912q-77 0 -121.5 -52t-44.5 -122q0 -68 45 -120.5t121 -52.5q80 0 123 51t43 119q0 72 -43 124q-44 53 -123 53z" />
    <glyph glyph-name="cedilla" unicode="&#xb8;" horiz-adv-x="314" 
d="M-227 -353q123 -67 227 -67q89 0 145 47t56 123q0 63 -43.5 101t-115.5 38l16 124h-105l-51 -224q24 4 45 4q105 0 105 -64q0 -36 -56 -36q-66 0 -168 57z" />
    <glyph glyph-name="guillemotright" unicode="&#xbb;" horiz-adv-x="819" 
d="M-12 97h222l252 460l-253 482h-221l256 -482zM353 97h215l260 460l-260 482h-215l260 -482z" />
    <glyph glyph-name="questiondown" unicode="&#xbf;" horiz-adv-x="819" 
d="M824 479h-203q-3 -159 -54.5 -236t-154.5 -77q-83 0 -138 69t-55 173q0 74 32 129t86 83q55 27 120 27q34 0 82 -10l-37 469h-115l-14 -282h-8h-4q-92 0 -174 -57q-82 -56 -130.5 -152t-48.5 -207q0 -123 53 -220t148 -150q95 -55 215 -55q103 0 179 41q77 40 125 110
q49 70 72 158q24 88 24 187zM334 1255h246v255h-246v-255z" />
    <glyph glyph-name="Agrave" unicode="&#xc0;" horiz-adv-x="1456" 
d="M-4 0h542v182h-169l108 336h494l106 -336h-176v-182h562v182h-150l-23 68l-356 1043h172v182h-745v-182h177l-24 -72l-372 -1039h-146v-182zM538 703l187 581l185 -581h-372zM449 1798l276 -309h146l-154 309h-268z" />
    <glyph glyph-name="Aacute" unicode="&#xc1;" horiz-adv-x="1456" 
d="M-4 0h542v182h-169l108 336h494l106 -336h-176v-182h562v182h-150l-23 68l-356 1043h172v182h-745v-182h177l-24 -72l-372 -1039h-146v-182zM538 703l187 581l185 -581h-372zM588 1489h141l283 309h-274z" />
    <glyph glyph-name="Acircumflex" unicode="&#xc2;" horiz-adv-x="1456" 
d="M-4 0h542v182h-169l108 336h494l106 -336h-176v-182h562v182h-150l-23 68l-356 1043h172v182h-745v-182h177l-24 -72l-372 -1039h-146v-182zM538 703l187 581l185 -581h-372zM455 1489h133l141 166l146 -166h137l-154 301h-254z" />
    <glyph glyph-name="Atilde" unicode="&#xc3;" horiz-adv-x="1456" 
d="M-4 0h542v182h-169l108 336h494l106 -336h-176v-182h562v182h-150l-23 68l-356 1043h172v182h-745v-182h177l-24 -72l-372 -1039h-146v-182zM538 703l187 581l185 -581h-372zM428 1514h103q6 42 24 77q17 33 47 33q15 0 37 -12l78 -63q75 -55 135 -55q89 0 141 64t52 175
v45h-107q0 -115 -76 -115q-29 0 -53 14.5t-67 48.5q-43 35 -73 51.5t-65 16.5q-52 0 -92 -30.5t-62 -85t-22 -125.5v-39z" />
    <glyph glyph-name="Adieresis" unicode="&#xc4;" horiz-adv-x="1456" 
d="M-4 0h542v182h-169l108 336h494l106 -336h-176v-182h562v182h-150l-23 68l-356 1043h172v182h-745v-182h177l-24 -72l-372 -1039h-146v-182zM538 703l187 581l185 -581h-372zM538 1757q-58 0 -90 -38t-32 -91q0 -51 31 -87q30 -35 88 -35t90 37q32 38 32 90
q0 51 -31 87.5t-88 36.5zM930 1757q-58 0 -91.5 -38t-33.5 -91q0 -50 32 -86t89 -36q58 0 91 38q34 37 34 89q0 51 -32 87.5t-89 36.5z" />
    <glyph glyph-name="Aring" unicode="&#xc5;" horiz-adv-x="1456" 
d="M-4 0h542v182h-169l108 336h494l106 -336h-176v-182h562v182h-150l-23 68l-356 1043h172v182h-745v-182h177l-24 -72l-372 -1039h-146v-182zM538 703l187 581l185 -581h-372zM729 1837q-81 0 -136 -55.5t-55 -136.5q0 -87 56 -141q54 -54 139 -54q89 0 139 56.5t50 134.5
q0 50 -23 95q-22 45 -66 73q-43 28 -104 28zM729 1731q42 0 65 -26t23 -62q0 -35 -23 -61q-24 -25 -65 -25q-38 0 -59 25q-21 26 -21 61t21 61.5t59 26.5z" />
    <glyph glyph-name="AE" unicode="&#xc6;" horiz-adv-x="1999" 
d="M13 0h501v183h-145l235 487h383v-487h-219v-183h183h1019v457h-182v-274h-579v487h507v182h-507v441h579v-254h182v436h-473h-1024v-182h222l-37 -72l-521 -1038h-124v-183zM690 852l215 441h82v-441h-297z" />
    <glyph glyph-name="Ccedilla" unicode="&#xc7;" horiz-adv-x="1403" 
d="M647 -25l-38 -186q24 4 45 4q106 0 106 -64q0 -36 -57 -36q-64 0 -172 57l-54 -103q118 -67 226 -67q90 0 146 45q56 46 56 117q0 69 -42.5 108t-116.5 39l14 82q119 5 218 38.5t179.5 98.5t143 162t106.5 226l-172 98q-77 -215 -197.5 -315.5t-295.5 -100.5
q-139 0 -247 71.5t-168.5 198.5t-60.5 287q0 166 59 297q59 132 165 205q105 74 239 74q108 0 199 -38q91 -37 154 -107q63 -69 90 -164h182v479h-186v-152q-169 181 -443 181q-195 0 -354 -102.5t-248.5 -283t-89.5 -405.5q0 -152 43 -280.5t124.5 -227t194.5 -159
t252 -77.5z" />
    <glyph glyph-name="Egrave" unicode="&#xc8;" horiz-adv-x="1180" 
d="M12 0h121h1022v462h-184v-279h-580v487h510v186h-510v437h580v-250h184v432h-118h-1025v-182h160v-72v-1038h-160v-183zM301 1798l287 -309h137l-153 309h-271z" />
    <glyph glyph-name="Eacute" unicode="&#xc9;" horiz-adv-x="1180" 
d="M12 0h121h1022v462h-184v-279h-580v487h510v186h-510v437h580v-250h184v432h-118h-1025v-182h160v-72v-1038h-160v-183zM448 1489h144l275 309h-267z" />
    <glyph glyph-name="Ecircumflex" unicode="&#xca;" horiz-adv-x="1180" 
d="M12 0h121h1022v462h-184v-279h-580v487h510v186h-510v437h580v-250h184v432h-118h-1025v-182h160v-72v-1038h-160v-183zM313 1489h135l144 166l141 -166h138l-158 301h-252z" />
    <glyph glyph-name="Edieresis" unicode="&#xcb;" horiz-adv-x="1180" 
d="M12 0h121h1022v462h-184v-279h-580v487h510v186h-510v437h580v-250h184v432h-118h-1025v-182h160v-72v-1038h-160v-183zM391 1757q-55 0 -86 -38q-33 -39 -33 -91q0 -50 30.5 -86t84.5 -36q62 0 95.5 37t33.5 90q0 50 -33 87t-92 37zM789 1757q-58 0 -92 -38
q-33 -38 -33 -91q0 -50 32 -86t89 -36q56 0 88 37q32 38 32 90q0 51 -30.5 87.5t-85.5 36.5z" />
    <glyph glyph-name="Igrave" unicode="&#xcc;" horiz-adv-x="545" 
d="M4 0h541v183h-162v67v1043h162v182h-541v-182h160v-72v-1038h-160v-183zM-17 1798l288 -309h137l-150 309h-275z" />
    <glyph glyph-name="Iacute" unicode="&#xcd;" horiz-adv-x="545" 
d="M4 0h541v183h-162v67v1043h162v182h-541v-182h160v-72v-1038h-160v-183zM129 1489h146l274 309h-266z" />
    <glyph glyph-name="Icircumflex" unicode="&#xce;" horiz-adv-x="545" 
d="M4 0h541v183h-162v67v1043h162v182h-541v-182h160v-72v-1038h-160v-183zM-4 1489h133l146 166l141 -166h137l-157 301h-250z" />
    <glyph glyph-name="Idieresis" unicode="&#xcf;" horiz-adv-x="545" 
d="M4 0h541v183h-162v67v1043h162v182h-541v-182h160v-72v-1038h-160v-183zM74 1757q-53 0 -84 -38.5t-31 -90.5q0 -50 29 -86q30 -36 82 -36q61 0 95 37t34 90q0 50 -33.5 87t-91.5 37zM469 1757q-58 0 -90.5 -38t-32.5 -91q0 -51 31.5 -86.5t87.5 -35.5q60 0 93 37
q32 38 32 90q0 51 -31.5 87.5t-89.5 36.5z" />
    <glyph glyph-name="Ntilde" unicode="&#xd1;" horiz-adv-x="1403" 
d="M4 0v183h160v1110h-160v182h451l592 -1127v945h-166v182h518v-182h-160v-1293h-239l-644 1225v-1042h166v-183h-518zM391 1514q0 116 23 165q23 54 64 85q42 30 94 30q21 0 40 -6t39.5 -18.5t58.5 -42.5q55 -42 77.5 -53t48.5 -11q69 0 69 115h107q0 -97 -11 -140.5
t-40 -80.5q-50 -64 -142 -64q-58 0 -133 56q-90 75 -114 75q-31 0 -48.5 -34.5t-21.5 -75.5h-111z" />
    <glyph glyph-name="Ograve" unicode="&#xd2;" horiz-adv-x="1501" 
d="M746 1510q156 0 290 -57.5t232 -162t151.5 -247t53.5 -308.5q0 -218 -94 -393q-94 -174 -260.5 -272.5t-376.5 -98.5q-205 0 -370 99q-164 98 -258 273q-93 174 -93 388q0 225 93 402.5t259 277t373 99.5zM746 1305q140 0 252 -73.5t175 -204t63 -292.5q0 -163 -64 -291
q-63 -128 -176.5 -199t-257.5 -71q-151 0 -260 80q-108 79 -162.5 207t-54.5 272q0 108 31 211t92.5 184.5t154.5 128.5q92 48 207 48zM462 1798l280 -309h143l-152 309h-271z" />
    <glyph glyph-name="Oacute" unicode="&#xd3;" horiz-adv-x="1501" 
d="M746 1509q156 0 290 -57t232 -161.5t151.5 -247t53.5 -308.5q0 -218 -94 -393q-94 -174 -260.5 -272.5t-376.5 -98.5q-205 0 -370 99q-164 98 -258 273q-93 174 -93 388q0 225 93 402.5t259 277.5q166 98 373 98zM746 1305q140 0 252 -73.5t175 -204t63 -292.5
q0 -163 -64 -291q-63 -128 -176.5 -199t-257.5 -71q-151 0 -260 80q-108 79 -162.5 207t-54.5 272q0 108 31 211t92.5 184.5t154.5 128.5q92 48 207 48zM605 1489l151 309h273l-283 -309h-141z" />
    <glyph glyph-name="Ocircumflex" unicode="&#xd4;" horiz-adv-x="1501" 
d="M746 1510q-207 0 -373 -99.5t-259 -277t-93 -402.5q0 -214 93 -388q94 -175 258 -273q165 -99 370 -99q210 0 376.5 98.5t260.5 272.5q94 175 94 393q0 166 -53.5 308.5t-151.5 247t-232 162t-290 57.5zM746 1305q140 0 252 -73.5t175 -204t63 -292.5q0 -163 -64 -291
q-63 -128 -176.5 -199t-257.5 -71q-151 0 -260 80q-108 79 -162.5 207t-54.5 272q0 108 31 211t92.5 184.5t154.5 128.5q92 48 207 48zM470 1489h135l141 166l143 -166h140l-154 301h-254z" />
    <glyph glyph-name="Otilde" unicode="&#xd5;" horiz-adv-x="1501" 
d="M746 1510q-207 0 -373 -99.5t-259 -277t-93 -402.5q0 -214 93 -388q94 -175 258 -273q165 -99 370 -99q210 0 376.5 98.5t260.5 272.5q94 175 94 393q0 166 -53.5 308.5t-151.5 247t-232 162t-290 57.5zM746 1305q140 0 252 -73.5t175 -204t63 -292.5q0 -163 -64 -291
q-63 -128 -176.5 -199t-257.5 -71q-151 0 -260 80q-108 79 -162.5 207t-54.5 272q0 108 31 211t92.5 184.5t154.5 128.5q92 48 207 48zM445 1514h101q6 42 23 76q18 34 50 34q16 0 35 -12l79 -63q76 -56 134 -56q90 0 140 64q51 64 51 176l-1 45h-102q0 -115 -76 -115
q-29 0 -54.5 15t-67 48.5t-72 50.5t-64.5 17q-52 0 -92.5 -30.5t-62 -85t-21.5 -125.5v-39z" />
    <glyph glyph-name="Odieresis" unicode="&#xd6;" horiz-adv-x="1501" 
d="M746 1510q-207 0 -373 -99.5t-259 -277t-93 -402.5q0 -214 93 -388q94 -175 258 -273q165 -99 370 -99q210 0 376.5 98.5t260.5 272.5q94 175 94 393q0 166 -53.5 308.5t-151.5 247t-232 162t-290 57.5zM746 1305q140 0 252 -73.5t175 -204t63 -292.5q0 -163 -64 -291
q-63 -128 -176.5 -199t-257.5 -71q-151 0 -260 80q-108 79 -162.5 207t-54.5 272q0 108 31 211t92.5 184.5t154.5 128.5q92 48 207 48zM553 1757q-56 0 -87 -38t-31 -91q0 -51 29 -86q30 -36 85 -36q58 0 90 37q33 38 33 90q0 51 -31 87.5t-88 36.5zM946 1757q-59 0 -92 -38
q-32 -38 -32 -91q0 -51 31 -86q32 -36 89 -36q58 0 91 37q33 38 33 90q0 51 -32 88q-31 36 -88 36z" />
    <glyph glyph-name="Oslash" unicode="&#xd8;" horiz-adv-x="1501" 
d="M-8 101l107 -105l163 158q205 -187 494 -187q156 0 290 57t231 160.5t150.5 246t53.5 309.5q0 93 -13 165.5t-43 144.5t-87 167l163 162l-102 106l-160 -164q-106 94 -223.5 139.5t-259.5 45.5q-156 0 -290 -58q-134 -57 -232 -161.5t-152 -246.5q-53 -142 -53 -309
q0 -293 135 -460zM334 436q-65 135 -65 293q0 108 31 210.5t93.5 184.5t154.5 129.5t208 47.5q97 0 170.5 -33.5t146.5 -108.5zM424 316l735 731q82 -136 82 -309q0 -142 -58 -272.5t-167.5 -211t-255.5 -80.5q-206 0 -336 142z" />
    <glyph glyph-name="Ugrave" unicode="&#xd9;" horiz-adv-x="1317" 
d="M0 1293h156v-826q0 -157 59 -269q58 -111 169.5 -169t269.5 -58q160 0 272.5 57.5t170.5 168.5q58 112 58 270v826h162v182h-541v-182h162v-826q0 -313 -284 -313q-139 0 -210 79q-71 80 -71 234v826h165v182h-538v-182zM369 1798l283 -309h143l-152 309h-274z" />
    <glyph glyph-name="Uacute" unicode="&#xda;" horiz-adv-x="1317" 
d="M0 1293h156v-826q0 -157 59 -269q58 -111 169.5 -169t269.5 -58q160 0 272.5 57.5t170.5 168.5q58 112 58 270v826h162v182h-541v-182h162v-826q0 -313 -284 -313q-139 0 -210 79q-71 80 -71 234v826h165v182h-538v-182zM510 1489h144l284 309h-276z" />
    <glyph glyph-name="Ucircumflex" unicode="&#xdb;" horiz-adv-x="1317" 
d="M0 1293h156v-826q0 -157 59 -269q58 -111 169.5 -169t269.5 -58q160 0 272.5 57.5t170.5 168.5q58 112 58 270v826h162v182h-541v-182h162v-826q0 -313 -284 -313q-139 0 -210 79q-71 80 -71 234v826h165v182h-538v-182zM377 1489h133l144 166l145 -166h139l-153 301
h-258z" />
    <glyph glyph-name="Udieresis" unicode="&#xdc;" horiz-adv-x="1317" 
d="M0 1293h156v-826q0 -157 59 -269q58 -111 169.5 -169t269.5 -58q160 0 272.5 57.5t170.5 168.5q58 112 58 270v826h162v182h-541v-182h162v-826q0 -313 -284 -313q-139 0 -210 79q-71 80 -71 234v826h165v182h-538v-182zM461 1757q-58 0 -90.5 -38t-32.5 -91
q0 -51 32 -86.5t89 -35.5q60 0 92 36.5t32 90.5q0 51 -32 87.5t-90 36.5zM852 1757q-59 0 -92 -38t-33 -91q0 -51 32 -86.5t89 -35.5q61 0 94 36.5t33 90.5q0 51 -32.5 87.5t-90.5 36.5z" />
    <glyph glyph-name="Yacute" unicode="&#xdd;" horiz-adv-x="1317" 
d="M8 1293h152l395 -619v-491h-159v-183h546v183h-161v487l372 623h156v182h-516v-182h162l-265 -441l-278 441h143v182h-547v-182zM514 1489h144l280 309h-272z" />
    <glyph glyph-name="germandbls" unicode="&#xdf;" 
d="M17 860h151v-682h-147v-178h445v178h-101v965q0 211 188 211q90 0 131 -37q42 -38 42 -121q0 -88 -53 -127t-170 -39v-170q128 0 210 -38.5t120 -118.5t38 -207q0 -153 -74 -233t-221 -80v-183h59q129 0 226 60t148.5 172t51.5 264q0 196 -79 322q-81 125 -226 149
q158 82 158 246q0 90 -46 160q-45 70 -129 109.5t-194 39.5q-141 0 -222 -47q-82 -46 -118 -152q-37 -105 -37 -284h-151v-179z" />
    <glyph glyph-name="agrave" unicode="&#xe0;" horiz-adv-x="996" 
d="M654 97v-97h337v178h-143v512q0 132 -41 214t-127.5 119.5t-224.5 37.5q-108 0 -183.5 -24.5t-130.5 -80.5q-55 -55 -104 -149l178 -51q35 60 106.5 96.5t145.5 36.5q78 0 131.5 -45t53.5 -133v-158q-113 94 -265 94q-94 0 -180 -40t-138 -116.5t-52 -178.5
q0 -152 105 -239.5t249 -87.5q169 0 283 112zM652 242q-38 -41 -110 -67q-72 -25 -142 -25q-85 0 -140 38q-55 39 -55 119q0 88 55.5 131.5t141.5 43.5q71 0 141 -28t109 -73v-139zM209 1544l285 -309h142l-154 309h-273z" />
    <glyph glyph-name="aacute" unicode="&#xe1;" horiz-adv-x="996" 
d="M654 97v-97h337v178h-143v512q0 132 -41 214t-127.5 119.5t-224.5 37.5q-108 0 -183.5 -24.5t-130.5 -80.5q-55 -55 -104 -149l178 -51q35 60 106.5 96.5t145.5 36.5q78 0 131.5 -45t53.5 -133v-158q-113 94 -265 94q-94 0 -180 -40t-138 -116.5t-52 -178.5
q0 -152 105 -239.5t249 -87.5q169 0 283 112zM652 242q-38 -41 -110 -67q-72 -25 -142 -25q-85 0 -140 38q-55 39 -55 119q0 88 55.5 131.5t141.5 43.5q71 0 141 -28t109 -73v-139zM353 1235h145l278 309h-270z" />
    <glyph glyph-name="acircumflex" unicode="&#xe2;" horiz-adv-x="996" 
d="M654 97v-97h337v178h-143v512q0 132 -41 214t-127.5 119.5t-224.5 37.5q-108 0 -183.5 -24.5t-130.5 -80.5q-55 -55 -104 -149l178 -51q35 60 106.5 96.5t145.5 36.5q78 0 131.5 -45t53.5 -133v-158q-113 94 -265 94q-94 0 -180 -40t-138 -116.5t-52 -178.5
q0 -152 105 -239.5t249 -87.5q169 0 283 112zM652 242q-38 -41 -110 -67q-72 -25 -142 -25q-85 0 -140 38q-55 39 -55 119q0 88 55.5 131.5t141.5 43.5q71 0 141 -28t109 -73v-139zM219 1235h134l145 166l145 -166h138l-156 301h-256z" />
    <glyph glyph-name="atilde" unicode="&#xe3;" horiz-adv-x="996" 
d="M654 97v-97h337v178h-143v512q0 132 -41 214t-127.5 119.5t-224.5 37.5q-108 0 -183.5 -24.5t-130.5 -80.5q-55 -55 -104 -149l178 -51q35 60 106.5 96.5t145.5 36.5q78 0 131.5 -45t53.5 -133v-158q-113 94 -265 94q-94 0 -180 -40t-138 -116.5t-52 -178.5
q0 -152 105 -239.5t249 -87.5q169 0 283 112zM652 242q-38 -41 -110 -67q-72 -25 -142 -25q-85 0 -140 38q-55 39 -55 119q0 88 55.5 131.5t141.5 43.5q71 0 141 -28t109 -73v-139zM189 1260h108q4 42 20 76q17 34 46 34q15 0 37 -12l82 -57q73 -62 135 -62q88 0 139 66.5
t51 179.5v39h-104q0 -53 -20 -84t-52 -31q-31 0 -56.5 15t-68 49t-72 50.5t-65.5 16.5q-80 0 -130 -65t-50 -170v-45z" />
    <glyph glyph-name="adieresis" unicode="&#xe4;" horiz-adv-x="996" 
d="M654 97v-97h337v178h-143v512q0 132 -41 214t-127.5 119.5t-224.5 37.5q-108 0 -183.5 -24.5t-130.5 -80.5q-55 -55 -104 -149l178 -51q35 60 106.5 96.5t145.5 36.5q78 0 131.5 -45t53.5 -133v-158q-113 94 -265 94q-94 0 -180 -40t-138 -116.5t-52 -178.5
q0 -152 105 -239.5t249 -87.5q169 0 283 112zM652 242q-38 -41 -110 -67q-72 -25 -142 -25q-85 0 -140 38q-55 39 -55 119q0 88 55.5 131.5t141.5 43.5q71 0 141 -28t109 -73v-139zM301 1510q-57 0 -91 -40t-34 -93q0 -50 32.5 -87.5t88.5 -37.5q60 0 95 39q34 40 34 92
t-32 89q-33 38 -93 38zM695 1510q-58 0 -91.5 -40t-33.5 -93q0 -50 32 -87.5t88 -37.5q58 0 92 38q33 39 33 91q0 53 -32 91t-88 38z" />
    <glyph glyph-name="aring" unicode="&#xe5;" horiz-adv-x="996" 
d="M654 97v-97h337v178h-143v512q0 132 -41 214t-127.5 119.5t-224.5 37.5q-108 0 -183.5 -24.5t-130.5 -80.5q-55 -55 -104 -149l178 -51q35 60 106.5 96.5t145.5 36.5q78 0 131.5 -45t53.5 -133v-158q-113 94 -265 94q-94 0 -180 -40t-138 -116.5t-52 -178.5
q0 -152 105 -239.5t249 -87.5q169 0 283 112zM652 242q-38 -41 -110 -67q-72 -25 -142 -25q-85 0 -140 38q-55 39 -55 119q0 88 55.5 131.5t141.5 43.5q71 0 141 -28t109 -73v-139zM498 1583q-89 0 -139 -57t-50 -135t50 -136.5t139 -58.5q88 0 136 58t48 137t-48 135.5
t-136 56.5zM498 1481q40 0 61 -26.5t21 -61.5t-21 -60q-22 -24 -61 -24t-63 25q-23 26 -23 61q0 34 23 60t63 26z" />
    <glyph glyph-name="ae" unicode="&#xe6;" horiz-adv-x="1639" 
d="M33 807l176 -51q43 69 98 101t138 32q202 0 202 -178v-158q-112 94 -268 94q-95 0 -181 -39q-85 -40 -137 -117q-53 -76 -53 -179q0 -92 45 -167.5t124 -117.5q79 -44 176 -44q224 0 397 192q71 -79 130 -121t123 -61q64 -18 150 -18q153 0 266.5 69.5t213.5 226.5
l-160 78q-75 -101 -147 -146q-71 -45 -162 -45q-129 0 -209.5 82t-96.5 227h762v60q0 119 -34 218t-98 170q-63 71 -152 109q-88 37 -195 37q-103 0 -184 -34t-162 -113q-84 147 -346 147q-159 0 -253 -56q-93 -57 -163 -198zM647 242q-39 -41 -113 -68q-73 -26 -145 -26
q-83 0 -138 39t-55 120q0 90 54 132q53 43 137 43q73 0 145 -28q73 -28 115 -71v-141zM867 635q20 122 92 189t182 67q71 0 130.5 -31t97.5 -89t51 -136h-553z" />
    <glyph glyph-name="ccedilla" unicode="&#xe7;" horiz-adv-x="996" 
d="M445 -13l-49 -198q28 4 53 4q101 0 101 -64q0 -40 -56 -40q-71 0 -172 61l-51 -103q108 -67 223 -67q92 0 148 45q57 46 57 117q0 68 -43 107.5t-117 39.5l15 90q96 4 185 44q90 39 157 106q66 68 100 154l-152 90q-123 -215 -301 -215q-99 0 -170 53t-107 139t-36 183
q0 93 34 174q32 81 98 131.5t160 50.5q112 0 185.5 -63t85.5 -172h170v385h-170v-93q-105 111 -279 111q-139 0 -250 -69.5t-173 -194t-62 -279.5q0 -105 28 -194.5t83 -159.5t131.5 -113t173.5 -60z" />
    <glyph glyph-name="egrave" unicode="&#xe8;" horiz-adv-x="1045" 
d="M1032 258l-157 78q-76 -98 -148.5 -138.5t-173.5 -40.5q-137 0 -222 84q-87 84 -100 226h801v68q0 117 -36 214q-37 98 -103 167t-158.5 107t-203.5 38q-151 0 -268 -68.5t-182 -193.5t-65 -285q0 -123 37 -223q38 -100 108 -170t168.5 -108t219.5 -38q110 0 193 28
q82 26 152 88.5t138 166.5zM235 626q54 269 304 269q78 0 140 -30q61 -32 100 -92t53 -147h-597zM231 1544l287 -309h140l-152 309h-275z" />
    <glyph glyph-name="eacute" unicode="&#xe9;" horiz-adv-x="1045" 
d="M1032 258l-157 78q-76 -98 -148.5 -138.5t-173.5 -40.5q-137 0 -222 84q-87 84 -100 226h801v68q0 117 -36 214q-37 98 -103 167t-158.5 107t-203.5 38q-151 0 -268 -68.5t-182 -193.5t-65 -285q0 -123 37 -223q38 -100 108 -170t168.5 -108t219.5 -38q110 0 193 28
q82 26 152 88.5t138 166.5zM235 626q54 269 304 269q78 0 140 -30q61 -32 100 -92t53 -147h-597zM377 1235h145l277 309h-268z" />
    <glyph glyph-name="ecircumflex" unicode="&#xea;" horiz-adv-x="1045" 
d="M1032 258l-157 78q-76 -98 -148.5 -138.5t-173.5 -40.5q-137 0 -222 84q-87 84 -100 226h801v68q0 117 -36 214q-37 98 -103 167t-158.5 107t-203.5 38q-151 0 -268 -68.5t-182 -193.5t-65 -285q0 -123 37 -223q38 -100 108 -170t168.5 -108t219.5 -38q110 0 193 28
q82 26 152 88.5t138 166.5zM235 626q54 269 304 269q78 0 140 -30q61 -32 100 -92t53 -147h-597zM243 1235h134l145 166l144 -166h137l-156 301h-256z" />
    <glyph glyph-name="edieresis" unicode="&#xeb;" horiz-adv-x="1045" 
d="M1032 258l-157 78q-76 -98 -148.5 -138.5t-173.5 -40.5q-137 0 -222 84q-87 84 -100 226h801v68q0 117 -36 214q-37 98 -103 167t-158.5 107t-203.5 38q-151 0 -268 -68.5t-182 -193.5t-65 -285q0 -123 37 -223q38 -100 108 -170t168.5 -108t219.5 -38q110 0 193 28
q82 26 152 88.5t138 166.5zM235 626q54 269 304 269q78 0 140 -30q61 -32 100 -92t53 -147h-597zM326 1510q-57 0 -90 -40.5t-33 -92.5q0 -51 31.5 -88t87.5 -37q59 0 94 39q34 40 34 92t-32 89q-33 38 -92 38zM717 1510q-55 0 -88 -40.5t-33 -92.5q0 -50 31 -87.5t86 -37.5
q59 0 93 38q34 39 34 91q0 53 -33 91t-90 38z" />
    <glyph glyph-name="igrave" unicode="&#xec;" horiz-adv-x="498" 
d="M4 0h490v178h-152v860h-338v-178h146v-682h-146v-178zM-41 1544l281 -309h144l-152 309h-273z" />
    <glyph glyph-name="iacute" unicode="&#xed;" horiz-adv-x="498" 
d="M4 0h490v178h-152v860h-338v-178h146v-682h-146v-178zM103 1235h141l283 309h-273z" />
    <glyph glyph-name="icircumflex" unicode="&#xee;" horiz-adv-x="498" 
d="M5 0h489v178h-152v860h-337v-178h145v-682h-145v-178zM-28 1235h131l141 166l143 -166h140l-154 301h-254z" />
    <glyph glyph-name="idieresis" unicode="&#xef;" horiz-adv-x="498" 
d="M4 0h490v178h-152v861h-338v-179h145v-682h-145v-178zM51 1510q-56 0 -87.5 -40t-31.5 -93q0 -50 30 -88q30 -37 85 -37q40 0 68 18.5t41 48.5q14 29 14 62q0 53 -31 91t-88 38zM445 1510q-59 0 -92 -40t-33 -93q0 -50 32 -88q31 -37 89 -37q57 0 90 38q32 39 32 91
q0 53 -31 91t-87 38z" />
    <glyph glyph-name="ntilde" unicode="&#xf1;" 
d="M13 0v178h143v682h-143v179h337v-125q160 141 320 141q268 0 268 -342v-535h139v-178h-339v682q0 174 -125 174q-123 0 -260 -125v-553h161v-178h-501zM236 1260v45q0 104 49 170q50 65 127 65q32 0 59 -13t77 -53q57 -45 80 -55t46 -10q72 0 72 115h108v-39
q0 -114 -50.5 -180t-141.5 -66q-70 0 -131 62q-55 41 -75.5 55t-41.5 14q-31 0 -48.5 -34t-23.5 -76h-106z" />
    <glyph glyph-name="ograve" unicode="&#xf2;" 
d="M549 1061q-147 0 -267.5 -70t-189 -194t-68.5 -279q0 -116 38 -214q39 -99 109 -170.5t167.5 -111t210.5 -39.5q150 0 267 69q118 69 183.5 191t65.5 275q0 155 -66.5 279t-185 194t-264.5 70zM545 881q99 0 171 -51t108 -134t36 -178q0 -92 -36 -173.5t-108 -132
t-171 -50.5q-101 0 -173 50t-108.5 132.5t-36.5 173.5q0 95 36.5 177.5t109 134t172.5 51.5zM258 1544l281 -309h143l-151 309h-273z" />
    <glyph glyph-name="oacute" unicode="&#xf3;" 
d="M549 1061q-147 0 -267.5 -70t-189 -194t-68.5 -279q0 -116 38 -214q39 -99 109 -170.5t167.5 -111t210.5 -39.5q150 0 267 69q118 69 183.5 191t65.5 275q0 155 -66.5 279t-185 194t-264.5 70zM545 881q99 0 171 -51t108 -134t36 -178q0 -92 -36 -173.5t-108 -132
t-171 -50.5q-101 0 -173 50t-108.5 132.5t-36.5 173.5q0 95 36.5 177.5t109 134t172.5 51.5zM395 1235h147l282 309h-275z" />
    <glyph glyph-name="ocircumflex" unicode="&#xf4;" 
d="M549 1061q-147 0 -267.5 -70t-189 -194t-68.5 -279q0 -116 38 -214q39 -99 109 -170.5t167.5 -111t210.5 -39.5q150 0 267 69q118 69 183.5 191t65.5 275q0 155 -66.5 279t-185 194t-264.5 70zM545 881q99 0 171 -51t108 -134t36 -178q0 -92 -36 -173.5t-108 -132
t-171 -50.5q-101 0 -173 50t-108.5 132.5t-36.5 173.5q0 95 36.5 177.5t109 134t172.5 51.5zM266 1235h129l148 166l143 -166h138l-154 301h-258z" />
    <glyph glyph-name="otilde" unicode="&#xf5;" 
d="M549 1061q-147 0 -267.5 -70t-189 -194t-68.5 -279q0 -116 38 -214q39 -99 109 -170.5t167.5 -111t210.5 -39.5q150 0 267 69q118 69 183.5 191t65.5 275q0 155 -66.5 279t-185 194t-264.5 70zM545 881q99 0 171 -51t108 -134t36 -178q0 -92 -36 -173.5t-108 -132
t-171 -50.5q-101 0 -173 50t-108.5 132.5t-36.5 173.5q0 95 36.5 177.5t109 134t172.5 51.5zM235 1260h107q5 42 24 76q17 34 48 34q18 0 39 -12l78 -57q61 -62 131 -62q91 0 141.5 66t50.5 180v39h-108q0 -115 -72 -115q-30 0 -57 16t-69 49q-43 34 -72 50t-64 16
q-77 0 -127 -65.5t-50 -169.5v-45z" />
    <glyph glyph-name="odieresis" unicode="&#xf6;" 
d="M549 1061q-147 0 -267.5 -70t-189 -194t-68.5 -279q0 -116 38 -214q39 -99 109 -170.5t167.5 -111t210.5 -39.5q150 0 267 69q118 69 183.5 191t65.5 275q0 155 -66.5 279t-185 194t-264.5 70zM545 881q99 0 171 -51t108 -134t36 -178q0 -92 -36 -173.5t-108 -132
t-171 -50.5q-101 0 -173 50t-108.5 132.5t-36.5 173.5q0 95 36.5 177.5t109 134t172.5 51.5zM350 1510q-57 0 -90 -40t-33 -93q0 -51 32 -88q30 -37 87 -37q40 0 68 18.5t41 48.5q14 29 14 62q0 53 -31 91t-88 38zM738 1510q-58 0 -89.5 -40t-31.5 -93q0 -50 30 -88
q30 -37 86 -37q60 0 92.5 38t32.5 91t-31.5 91t-88.5 38z" />
    <glyph glyph-name="oslash" unicode="&#xf8;" 
d="M-8 43l102 -90l129 135q136 -109 322 -109q112 0 208.5 46.5t167.5 127t108.5 180t37.5 204.5q0 194 -121 336l131 141l-98 102l-135 -149q-131 94 -299 94q-150 0 -269.5 -79t-186.5 -207q-66 -129 -66 -267q0 -181 106 -317zM266 336q-53 80 -53 174q0 92 47.5 178
t126.5 140q80 53 166 53q84 0 160 -53zM353 226l458 497q36 -49 50 -91t14 -105q0 -96 -49 -182q-48 -86 -127 -138q-79 -51 -166 -51q-100 0 -180 70z" />
    <glyph glyph-name="ugrave" unicode="&#xf9;" 
d="M8 860h144v-581q0 -140 67 -213q68 -74 197 -74q169 0 322 135v-127h339v178h-139v860h-362v-178h162v-555q-122 -118 -261 -118q-64 0 -94 42.5t-30 135.5v673h-345v-178zM258 1544l281 -309h143l-151 309h-273z" />
    <glyph glyph-name="uacute" unicode="&#xfa;" 
d="M8 860h144v-581q0 -140 67 -213q68 -74 197 -74q169 0 322 135v-127h339v178h-139v861h-362v-179h162v-555q-122 -118 -261 -118q-64 0 -94 42.5t-30 135.5v674h-345v-179zM396 1235h147l281 309h-275z" />
    <glyph glyph-name="ucircumflex" unicode="&#xfb;" 
d="M8 860h144v-581q0 -140 67 -213q68 -74 197 -74q169 0 322 135v-127h339v178h-139v860h-362v-178h162v-555q-122 -118 -261 -118q-64 0 -94 42.5t-30 135.5v673h-345v-178zM266 1235h130l147 166l143 -166h138l-154 301h-258z" />
    <glyph glyph-name="udieresis" unicode="&#xfc;" 
d="M8 860h144v-581q0 -140 67 -213q68 -74 197 -74q169 0 322 135v-127h339v178h-139v861h-362v-179h162v-555q-122 -118 -261 -118q-64 0 -94 42.5t-30 135.5v674h-345v-179zM350 1510q-57 0 -90 -40q-32 -40 -32 -93q0 -51 30.5 -88t87.5 -37q40 0 68 18.5t42 48t14 62.5
q0 53 -32 91q-31 38 -88 38zM738 1510q-58 0 -89.5 -40t-31.5 -93q0 -50 30 -88q30 -37 86 -37q60 0 92.5 38t32.5 91t-31.5 91t-88.5 38z" />
    <glyph glyph-name="yacute" unicode="&#xfd;" horiz-adv-x="1045" 
d="M0 860h107l338 -827l-115 -308h-256v-178h379l100 279l393 1034h101v178h-418v-178h127l-217 -602l-230 602h136v178h-445v-178zM377 1235h145l277 309h-268z" />
    <glyph glyph-name="ydieresis" unicode="&#xff;" horiz-adv-x="1045" 
d="M0 860h107l338 -827l-115 -308h-256v-178h379l100 279l393 1034h101v179h-418v-179h127l-217 -602l-230 602h136v179h-445v-179zM326 1510q-57 0 -90 -40.5t-33 -92.5q0 -51 31.5 -88t87.5 -37q59 0 94 39q35 40 35 92t-33 89q-33 38 -92 38zM717 1510q-55 0 -88 -40
q-32 -41 -32 -93q0 -50 30 -87q31 -38 86 -38q59 0 93 38q34 39 34 91q0 53 -33 91t-90 38z" />
    <glyph glyph-name="OE" unicode="&#x152;" horiz-adv-x="1999" 
d="M1983 0v457h-187v-275h-573v492h510v182h-510v437h569v-250h191v432h-267h-1021q-155 0 -281 -63q-126 -62 -213.5 -171t-132.5 -245t-45 -279q0 -101 23.5 -200t70.5 -187q48 -89 119 -160q66 -66 143 -103t162.5 -52t187.5 -15h228h1026zM1004 182h-271q-146 0 -254 65
q-107 63 -164 185q-56 122 -56 291q0 340 200 490q106 80 313 80h232v-1043v-68z" />
    <glyph glyph-name="oe" unicode="&#x153;" horiz-adv-x="1862" 
d="M934 178q67 -73 130 -117q63 -43 133 -62.5t157 -19.5q292 0 477 283l-158 91q-78 -103 -153.5 -149.5t-169.5 -46.5q-86 0 -154 39.5t-108 108.5t-43 156h782v49q0 123 -34 224.5t-99 175t-156 112.5t-200 39q-80 0 -147 -19t-129 -60q-61 -41 -120 -105
q-94 98 -187 141t-210 43q-143 0 -259.5 -71t-182.5 -196.5t-66 -279.5q0 -152 64 -275q63 -122 176.5 -191t257.5 -69q112 0 206 46t193 153zM545 885q93 0 159 -50t99 -132t33 -176q0 -93 -34.5 -177t-102 -136t-160.5 -52q-95 0 -162.5 50t-101 132t-33.5 174
q0 94 35 178.5t104 136.5t164 52zM1041 631q10 118 90 191t198 73q123 0 202.5 -71.5t88.5 -192.5h-579z" />
    <glyph glyph-name="circumflex" unicode="&#x2c6;" horiz-adv-x="314" 
d="M-278 1235h133l145 166l142 -166h137l-152 301h-256z" />
    <glyph glyph-name="tilde" unicode="&#x2dc;" horiz-adv-x="314" 
d="M-309 1260h108q4 42 20 76q17 34 46 34q15 0 36 -12l82 -57q68 -62 136 -62q88 0 139 66.5t51 179.5v39h-108q0 -115 -72 -115q-29 0 -55 15q-25 15 -66 48.5t-71 50.5t-66 17q-80 0 -130 -65t-50 -170v-45z" />
    <glyph glyph-name="emdash" unicode="&#x2013;" horiz-adv-x="1227" 
d="M24 488h152h1024v186h-149h-1027v-186z" />
    <glyph glyph-name="endash" unicode="&#x2014;" horiz-adv-x="1227" 
d="M24 488h152h1024v186h-149h-1027v-186z" />
    <glyph glyph-name="quoteleft" unicode="&#x2018;" horiz-adv-x="314" 
d="M33 918h254v258h-114v24v13q0 47 22 98t61 51q18 0 31 -8v125q-130 0 -192 -85t-62 -222v-254z" />
    <glyph glyph-name="quoteright" unicode="&#x2019;" horiz-adv-x="314" 
d="M33 918q127 0 190 86q64 86 64 221v250h-254v-258h109v-21v-16q0 -68 -24.5 -104.5t-84.5 -36.5v-121z" />
    <glyph glyph-name="quotedblleft" unicode="&#x201c;" horiz-adv-x="635" 
d="M29 918h254v258h-115q0 85 17.5 133.5t85.5 48.5q8 0 12 -4v125q-130 0 -192 -85q-62 -84 -62 -222v-254zM357 918h256v258h-115q0 90 20 133q20 44 95 49v117h-13h-4q-116 0 -178 -78q-61 -79 -61 -225v-254z" />
    <glyph glyph-name="quotedblright" unicode="&#x201d;" horiz-adv-x="635" 
d="M29 918q130 0 192 84t62 223v250h-254v-258h108q11 -18 11 -47q0 -49 -36 -90t-83 -41v-121zM357 918q133 0 194.5 74t61.5 233v250h-256v-258h109q11 -25 11 -51q0 -49 -34 -88q-36 -39 -86 -39v-121z" />
    <glyph glyph-name="quotedblbase" unicode="&#x201e;" horiz-adv-x="635" 
d="M29 -297q84 0 141.5 40t84.5 109q28 68 28 152v254h-254v-258h108q13 -25 13 -49q0 -49 -37 -89q-36 -40 -84 -40v-119zM357 -297q133 0 194.5 73t61.5 228v254h-256v-258h109q9 -18 9 -47q0 -47 -31 -88q-32 -40 -75 -43h-12v-119z" />
    <glyph glyph-name="dagger" unicode="&#x2020;" horiz-adv-x="905" 
d="M0 824h180q97 61 170 61h58v-8q0 -96 -16.5 -160t-57.5 -139l94 -918h58l90 918q-40 74 -57 140q-16 66 -16 159l-1 8h57q46 0 78.5 -12t91.5 -49h181v215h-180q-62 -40 -93 -51t-78 -11h-56v25q0 136 61 215l-1 258h-217v-258q35 -47 48 -92q14 -46 14 -123v-25h-58
q-42 0 -77 13.5t-93 48.5h-180v-215z" />
    <glyph glyph-name="perthousand" unicode="&#x2030;" horiz-adv-x="1815" 
d="M275 1501q-129 0 -198 -100.5t-69 -290.5q0 -129 31 -220t90.5 -137t145.5 -46q129 0 197 102q67 103 67 297q0 193 -67 294t-197 101zM275 1366q112 0 112 -250q0 -272 -112 -272q-120 0 -120 258q0 264 120 264zM184 0l103 -43l240 500l493 1032l-94 47l-244 -502z
M942 789q-130 0 -199 -104q-69 -103 -69 -298q0 -192 70.5 -293.5t201.5 -101.5q84 0 142.5 45.5t89.5 133.5q31 89 31 212q0 198 -68 302t-199 104zM942 649q115 0 115 -253q0 -269 -111 -269q-123 0 -123 256q0 266 119 266zM1538 781q-130 0 -197 -102t-67 -298
q0 -191 69 -292.5t199 -101.5q126 0 195.5 101.5t69.5 288.5q0 199 -68.5 301.5t-200.5 102.5zM1542 645q115 0 115 -254q0 -268 -115 -268q-123 0 -123 258q0 128 31.5 196t91.5 68z" />
    <glyph glyph-name="guilsinglleft" unicode="&#x2039;" horiz-adv-x="453" 
d="M-17 557l253 -460h223l-254 460l254 482h-223z" />
    <glyph glyph-name="guilsinglright" unicode="&#x203a;" horiz-adv-x="453" 
d="M-17 97h222l254 460l-254 482h-222l253 -478z" />
    </font>
</defs>
</svg>
